<svg width="18" height="18" viewBox="0 0 18 18" fill="none" xmlns="http://www.w3.org/2000/svg">
<path d="M10.7379 5.40014L10.5509 5.22014C10.0879 4.73414 10.1681 4.50914 10.6222 4.05014L13.044 1.57514C13.7652 0.837141 13.8987 0.486141 14.5843 1.14314L14.7713 1.32314L10.7379 5.40014ZM11.2098 5.80514L15.1275 1.84514C15.7507 2.69114 17.2109 4.96814 16.4897 6.65114C15.8398 8.15414 15.5192 8.22614 14.709 9.35114C13.0618 11.2501 10.9872 13.2841 9.36673 14.8141C8.24486 15.6331 8.20034 16.0111 6.69561 16.6141C5.09294 17.2531 2.77796 15.8131 1.9054 15.2101L5.82304 11.2501L6.87368 12.7081C7.17641 13.1221 7.94213 12.6541 8.47636 12.1141C9.40235 11.1691 11.3077 9.25214 12.0379 8.45114C12.5632 7.92014 13.0351 7.14614 12.6255 6.83114L11.2098 5.80514ZM1.39788 14.8501L1.2109 14.6611C0.605449 13.9951 0.952695 13.8511 1.6739 13.1311L4.11352 10.6831C4.56761 10.2421 4.7813 10.1431 5.2443 10.5841L5.42237 10.7731L1.39788 14.8501Z" fill="#E5E5E5"/>
</svg>
