<svg width="22" height="22" viewBox="0 0 22 22" fill="none" xmlns="http://www.w3.org/2000/svg">
<path fill-rule="evenodd" clip-rule="evenodd" d="M3.30005 3.29995C3.30005 3.00821 3.41594 2.72842 3.62223 2.52213C3.82852 2.31584 4.10831 2.19995 4.40005 2.19995H17.6001C17.8918 2.19995 18.1716 2.31584 18.3779 2.52213C18.5842 2.72842 18.7001 3.00821 18.7001 3.29995V6.59995C18.7 6.89167 18.5841 7.17141 18.3778 7.37765L13.2001 12.5554V16.5C13.2 16.7917 13.0841 17.0714 12.8777 17.2777L10.6777 19.4777C10.5239 19.6314 10.3279 19.7362 10.1146 19.7786C9.90124 19.821 9.6801 19.7992 9.47913 19.716C9.27816 19.6328 9.10638 19.4918 8.98551 19.311C8.86463 19.1301 8.8001 18.9175 8.80005 18.7V12.5554L3.62235 7.37765C3.41604 7.17141 3.30011 6.89167 3.30005 6.59995V3.29995Z" fill="#F7F7F7"/>
</svg>
