<svg width="50" height="50" viewBox="0 0 50 50" fill="none" xmlns="http://www.w3.org/2000/svg">
<g clip-path="url(#clip0)">
<path d="M30.7684 35.3149H28.0274C27.6229 35.3149 27.2949 35.6429 27.2949 36.0474C27.2949 36.452 27.6229 36.7799 28.0274 36.7799H30.7684C31.1729 36.7799 31.5008 36.452 31.5008 36.0474C31.5008 35.6429 31.1729 35.3149 30.7684 35.3149Z" fill="#7DA837"/>
<path d="M46.9013 27.4735L42.9129 25.9352L40.8794 23.9017C40.7489 23.7711 40.5806 23.7004 40.4087 23.6894V22.0713C41.3671 21.0494 42.0494 19.7554 42.3247 18.2975C42.4956 18.3052 42.6681 18.2915 42.8383 18.2567C43.8128 18.0572 44.5202 17.153 44.5202 16.1069V15.5728C44.5202 14.9676 44.2748 14.4122 43.8751 14.015C44.5219 10.4974 43.9892 7.63079 42.3277 5.71213C40.7205 3.85636 38.1313 2.96935 34.8402 3.14738C31.7995 3.31173 29.8366 4.71076 29.2147 5.22258C28.8743 5.26301 28.2944 5.38254 27.7075 5.73469C26.894 6.22278 25.9244 7.24808 25.9244 9.36068C25.9244 11.2037 26.2189 12.7423 26.4322 13.6153C25.7174 13.9635 25.2391 14.7182 25.2391 15.581V16.1068C25.2391 17.1529 25.9465 18.0571 26.921 18.2566C27.0912 18.2915 27.2639 18.3052 27.4347 18.2974C27.7099 19.7553 28.3923 21.0493 29.3506 22.0712V23.6893C29.1787 23.7003 29.0103 23.771 28.8799 23.9016L26.8464 25.9351L22.858 27.4734C22.513 27.6065 22.1834 27.779 21.8785 27.9861C21.5439 28.2135 21.457 28.669 21.6842 29.0035C21.8259 29.2121 22.0563 29.3244 22.2907 29.3244C22.4324 29.3244 22.5756 29.2833 22.7016 29.1978C22.9142 29.0533 23.1442 28.933 23.3851 28.8401L27.0866 27.4123L29.9167 31.6575C30.2675 32.1838 30.8298 32.5214 31.4592 32.5837C31.5292 32.5907 31.5992 32.5941 31.6688 32.5941C32.0331 32.5941 32.3866 32.4983 32.6995 32.3212L32.0922 46.0974C32.0743 46.5015 32.3875 46.8436 32.7917 46.8614C32.8026 46.8619 32.8136 46.8621 32.8245 46.8621C33.2142 46.8621 33.5384 46.555 33.5557 46.1619L34.1193 33.3746H35.6399L36.2035 46.1619C36.2208 46.5551 36.545 46.8621 36.9347 46.8621C36.9456 46.8621 36.9566 46.8619 36.9675 46.8614C37.3716 46.8436 37.6848 46.5015 37.667 46.0974L37.0597 32.3212C37.3726 32.4983 37.726 32.5941 38.0905 32.5941C38.16 32.5941 38.23 32.5907 38.3 32.5837C38.9294 32.5214 39.4916 32.1838 39.8425 31.6575L42.6726 27.4123L46.3741 28.8401C46.8932 29.0403 47.3401 29.3597 47.6915 29.7582L45.1591 32.2906C44.2442 33.2055 43.7404 34.4219 43.7404 35.7157V46.1298C43.7404 46.5343 44.0683 46.8622 44.4728 46.8622C44.8773 46.8622 45.2052 46.5343 45.2052 46.1298V35.7157C45.2052 34.8132 45.5567 33.9646 46.1949 33.3264L48.4173 31.1039C48.5066 31.4314 48.5483 31.7756 48.5342 32.1276L47.967 46.1001C47.9506 46.5043 48.2649 46.8452 48.669 46.8617C48.6792 46.8621 48.6892 46.8623 48.6993 46.8623C49.09 46.8623 49.4146 46.5536 49.4305 46.1597L49.998 32.1867C50.0811 30.1141 48.8367 28.22 46.9013 27.4735ZM28.8685 17.9955C28.7393 17.2923 28.0881 16.7811 27.3852 16.8332C27.3297 16.8372 27.2724 16.8333 27.2148 16.8216C26.9236 16.762 26.704 16.4547 26.704 16.1069V15.5809C26.704 15.2412 26.931 14.9351 27.2208 14.8842C27.4653 14.8413 27.6995 14.931 27.8476 15.1243C27.9821 15.2996 28.1615 15.425 28.3663 15.4867C28.6663 15.5773 28.9971 15.5241 29.2514 15.3446C29.7094 15.0213 30.1135 14.6262 30.4524 14.1704C30.6938 13.8458 30.6263 13.387 30.3018 13.1457C29.977 12.9043 29.5184 12.9717 29.2769 13.2963C29.1079 13.5237 28.9169 13.73 28.7066 13.9127C28.4744 13.714 28.2031 13.5705 27.9124 13.4885C27.7242 12.7676 27.3892 11.2232 27.3892 9.36049C27.3892 8.2387 27.735 7.45052 28.417 7.0179C28.9491 6.6803 29.5123 6.66682 29.5119 6.66673C29.6991 6.66673 29.8813 6.59299 30.0173 6.46438C30.0352 6.44758 31.8356 4.77668 34.9191 4.60998C37.7415 4.45763 39.9204 5.17014 41.2202 6.67092C42.5301 8.18363 42.9664 10.506 42.4931 13.4127C42.2969 13.4058 42.0822 13.4207 41.8684 13.4563L41.1803 11.8038C41.0399 11.4666 40.6721 11.2846 40.3188 11.3767C40.2507 11.3945 33.4869 13.1091 30.6509 9.57826C30.3977 9.26293 29.9367 9.21254 29.6212 9.46586C29.3059 9.71918 29.2555 10.1801 29.5089 10.4955C32.405 14.1012 38.1515 13.3168 40.0644 12.9343L40.5965 14.2122C40.8253 14.7615 41.4107 15.0615 41.9876 14.9254C42.2245 14.8697 42.4507 14.8684 42.5357 14.8852C42.8319 14.9442 43.0552 15.2396 43.0552 15.5726V16.1068C43.0552 16.4547 42.8356 16.7619 42.5444 16.8215C42.4869 16.8333 42.4293 16.8372 42.374 16.8331C41.6712 16.7819 41.0201 17.2921 40.8908 17.9955C40.3579 20.8963 37.8299 23.0018 34.8796 23.0018C31.9293 23.0018 29.4013 20.8963 28.8685 17.9955ZM32.1176 30.9424C31.9318 31.1282 31.7159 31.1372 31.6036 31.1261C31.4914 31.1151 31.2814 31.0637 31.1356 30.8451L28.2846 26.5686L29.4311 25.422L33.8081 29.2519L32.1176 30.9424ZM34.1839 31.9099L34.2282 30.9032L34.8795 30.252L35.5308 30.9032L35.5751 31.9099H34.1839ZM34.8796 28.2429L30.8154 24.6867V23.285C31.9971 24.0364 33.3951 24.4666 34.8796 24.4666C36.3641 24.4666 37.7622 24.0364 38.9439 23.285V24.6867L34.8796 28.2429ZM38.6238 30.8451C38.478 31.0638 38.2679 31.1151 38.1558 31.1261C38.0434 31.1372 37.8275 31.1281 37.6417 30.9423L35.9512 29.2518L40.3282 25.4219L41.4747 26.5685L38.6238 30.8451Z" fill="#7DA837"/>
<path d="M23.2514 31.3244L19.6751 29.7634L17.7201 27.8084C17.5891 27.6773 17.4208 27.607 17.2494 27.5961V26.4438C18.9202 25.3459 20.1428 23.5997 20.5357 21.5189C20.7281 21.5275 20.9223 21.5091 21.1137 21.4638C22.0509 21.2421 22.7311 20.3439 22.7311 19.3283V18.7943C22.7311 18.0523 22.363 17.3848 21.7926 16.9932C21.9603 16.3286 22.0459 15.6486 22.0459 14.9641C22.0459 11.9297 20.4056 9.25706 17.9333 7.72248C17.9069 5.18995 15.7453 3.13721 13.0907 3.13721C10.4361 3.13721 8.27448 5.18995 8.24811 7.72248C5.77585 9.25706 4.13561 11.9298 4.13561 14.9641C4.13561 15.6465 4.22057 16.3246 4.38737 16.9874C3.81725 17.377 3.45036 18.0476 3.45036 18.8023V19.3283C3.45036 20.3439 4.13054 21.2421 5.06774 21.4638C5.25915 21.5092 5.45329 21.5275 5.64577 21.5189C6.03864 23.5997 7.2614 25.3459 8.9322 26.4438V27.5961C8.76081 27.607 8.59245 27.6773 8.46149 27.8084L6.50651 29.7634L2.93024 31.3244C1.11061 32.1188 -0.0554035 33.9852 0.0286786 35.9689L0.461198 46.1733C0.477897 46.5669 0.802214 46.8748 1.19245 46.8748C1.2029 46.8748 1.21344 46.8746 1.22399 46.8741C1.62819 46.857 1.94186 46.5155 1.92477 46.1113L1.49216 35.9068C1.46432 35.2493 1.63522 34.6113 1.95651 34.0621L3.87887 36.369C4.48639 37.098 4.82087 38.022 4.82087 38.9708V46.1424C4.82087 46.5469 5.1488 46.8748 5.55329 46.8748C5.95778 46.8748 6.28571 46.5469 6.28571 46.1424V38.9708C6.28571 37.68 5.83054 36.423 5.00417 35.4313L2.96052 32.9788C3.13425 32.8591 3.31891 32.7531 3.51628 32.6669L6.63307 31.3064L8.83561 34.8815C9.05309 35.2345 9.41267 35.4739 9.82224 35.5383C9.89587 35.5499 9.9697 35.5556 10.0432 35.5556C10.3781 35.5556 10.7043 35.4369 10.9629 35.2162L12.3586 34.0253V46.1423C12.3586 46.5468 12.6865 46.8747 13.091 46.8747C13.4955 46.8747 13.8234 46.5468 13.8234 46.1423V34.0255L15.219 35.2164C15.4776 35.4371 15.8038 35.5558 16.1386 35.5558C16.2121 35.5558 16.286 35.55 16.3596 35.5385C16.7692 35.4741 17.1288 35.2347 17.3463 34.8817L19.5488 31.3065L22.6656 32.667C22.8629 32.7531 23.0476 32.8592 23.2214 32.9789L21.1777 35.4314C20.3513 36.423 19.8962 37.6801 19.8962 38.9709V46.1425C19.8962 46.547 20.2241 46.8749 20.6286 46.8749C21.0331 46.8749 21.361 46.547 21.361 46.1425V38.9709C21.361 38.0221 21.6956 37.0981 22.303 36.3691L24.2254 34.0622C24.5467 34.6114 24.7176 35.2493 24.6897 35.9069L24.2572 46.1114C24.2401 46.5155 24.5538 46.857 24.958 46.8742C24.9685 46.8747 24.979 46.8749 24.9895 46.8749C25.3798 46.8749 25.7041 46.5671 25.7208 46.1734L26.1533 35.969C26.2373 33.9853 25.0712 32.1188 23.2514 31.3244ZM13.0909 4.60206C14.6491 4.60206 15.9637 5.5961 16.3525 6.94298C15.3414 6.56134 14.2412 6.35148 13.0909 6.35148C11.9406 6.35148 10.8404 6.56134 9.82927 6.94298C10.218 5.5961 11.5326 4.60206 13.0909 4.60206ZM7.07966 21.2171C6.95056 20.5136 6.29831 20.0027 5.59655 20.0547C5.53434 20.0591 5.47009 20.0538 5.40524 20.0383C5.12595 19.9722 4.9153 19.667 4.9153 19.3283V18.8023C4.9153 18.4626 5.14235 18.1565 5.4321 18.1056C5.67663 18.0627 5.91071 18.1525 6.05876 18.3456C6.19323 18.521 6.37263 18.6464 6.57761 18.7083C6.87751 18.7989 7.20847 18.7457 7.46257 18.5661C7.91364 18.2477 8.31247 17.8596 8.64802 17.4128C8.89089 17.0893 8.82556 16.6301 8.50212 16.3874C8.17858 16.1445 7.7195 16.2098 7.47663 16.5333C7.31052 16.7544 7.1235 16.9555 6.91784 17.1341C6.60446 16.8662 6.22018 16.6984 5.81257 16.6475C5.67223 16.0959 5.60046 15.5317 5.60046 14.9642C5.60046 11.023 8.96061 7.81642 13.0909 7.81642C17.2211 7.81642 20.5812 11.0229 20.5812 14.9642C20.5812 15.5306 20.5098 16.0936 20.37 16.6443C20.1772 16.6596 19.9813 16.6912 19.8 16.7382L19.2494 16.2855C18.9727 16.058 18.6245 15.9441 18.272 15.9651C17.1955 16.0287 11.682 16.1743 8.85329 12.7889C8.59391 12.4786 8.1321 12.4371 7.82165 12.6965C7.5112 12.9559 7.46989 13.4178 7.72927 13.7282C9.12438 15.3978 11.1706 16.5268 13.8109 17.0838C15.8325 17.5103 17.6296 17.4689 18.3337 17.4288L19.1926 18.1351C19.4291 18.3296 19.7606 18.357 20.0254 18.2029C20.1496 18.1352 20.5656 18.0706 20.7471 18.1068C21.0433 18.1657 21.2666 18.4612 21.2666 18.7943V19.3283C21.2666 19.6671 21.0559 19.9723 20.7766 20.0383C20.7119 20.0537 20.6475 20.0592 20.5853 20.0546C19.884 20.0036 19.2313 20.5136 19.1021 21.217C18.5693 24.1179 16.0413 26.2233 13.091 26.2233C10.1406 26.2233 7.61247 24.1179 7.07966 21.2171ZM10.0539 34.0663L7.85095 30.4905L8.97946 29.362L12.0125 32.395L10.0539 34.0663ZM13.0909 31.4018L10.3971 28.708V27.1928C11.2381 27.5129 12.1467 27.6882 13.0909 27.6882C14.035 27.6882 14.9437 27.5129 15.7846 27.1929V28.708L13.0909 31.4018ZM16.1279 34.0663L14.1693 32.395L17.2023 29.362L18.3308 30.4905L16.1279 34.0663Z" fill="#7DA837"/>
<path d="M10.332 38.5498H8.27637C7.87188 38.5498 7.54395 38.8778 7.54395 39.2823C7.54395 39.6868 7.87188 40.0147 8.27637 40.0147H10.332C10.7365 40.0147 11.0645 39.6868 11.0645 39.2823C11.0645 38.8778 10.7365 38.5498 10.332 38.5498Z" fill="#7DA837"/>
</g>
<defs>
<clipPath id="clip0">
<rect width="50" height="50" fill="white"/>
</clipPath>
</defs>
</svg>
