<svg width="50" height="50" viewBox="0 0 50 50" fill="none" xmlns="http://www.w3.org/2000/svg">
<path d="M12.5 6.25H14.0625V4.6875H15.625V3.125H14.0625V1.5625H12.5V3.125H10.9375V4.6875H12.5V6.25Z" fill="#515151"/>
<path d="M3.125 8.59375H4.6875V7.03125H6.25V5.46875H4.6875V3.90625H3.125V5.46875H1.5625V7.03125H3.125V8.59375Z" fill="#515151"/>
<path d="M35.9375 6.25H37.5V4.6875H39.0625V3.125H37.5V1.5625H35.9375V3.125H34.375V4.6875H35.9375V6.25Z" fill="#515151"/>
<path d="M46.875 5.46875V3.90625H45.3125V5.46875H43.75V7.03125H45.3125V8.59375H46.875V7.03125H48.4375V5.46875H46.875Z" fill="#515151"/>
<path d="M48.3906 21.6172L44.0703 9.375C43.9087 8.91785 43.6093 8.52208 43.2133 8.24223C42.8173 7.96239 42.3443 7.81225 41.8594 7.8125H41.1484C40.7844 7.81152 40.4252 7.89581 40.0996 8.05861C39.774 8.22141 39.4911 8.45819 39.2734 8.75C39.0553 9.04268 38.9079 9.38193 38.8428 9.74112C38.7778 10.1003 38.7968 10.4697 38.8984 10.8203L42.1875 21.9844V27.9219L39.8438 32.1406V25.7812C39.8419 25.1602 39.5944 24.5652 39.1552 24.126C38.7161 23.6869 38.121 23.4394 37.5 23.4375H37.1094C36.6324 23.4405 36.1677 23.5886 35.7769 23.8621C35.3862 24.1356 35.0879 24.5216 34.9219 24.9688C34.5832 24.4934 34.1719 24.0743 33.7031 23.7266C35.151 21.2711 35.922 18.4756 35.9375 15.625C35.9375 7.86719 31.0313 1.5625 25 1.5625C18.9688 1.5625 14.0625 7.86719 14.0625 15.625C14.0777 18.4717 14.8517 21.2629 16.3047 23.7109C15.8335 24.0584 15.4196 24.4775 15.0781 24.9531C14.9089 24.5094 14.6094 24.1271 14.219 23.8566C13.8286 23.5862 13.3656 23.44 12.8906 23.4375H12.5C11.879 23.4394 11.2839 23.6869 10.8448 24.126C10.4056 24.5652 10.1581 25.1602 10.1563 25.7812V32.1406L7.8125 27.9219V21.9844L11.1016 10.8203C11.2032 10.4697 11.2222 10.1003 11.1572 9.74112C11.0921 9.38193 10.9447 9.04268 10.7266 8.75C10.5089 8.45819 10.226 8.22141 9.90039 8.05861C9.57479 7.89581 9.21559 7.81152 8.85157 7.8125H8.14063C7.65575 7.81225 7.18272 7.96239 6.78674 8.24223C6.39076 8.52208 6.09132 8.91785 5.92969 9.375L1.60938 21.6172C1.57807 21.6995 1.56218 21.7869 1.5625 21.875V33.5938C1.56402 33.6785 1.57717 33.7626 1.60157 33.8438L4.38282 42.1875H3.125C2.9178 42.1875 2.71909 42.2698 2.57258 42.4163C2.42606 42.5628 2.34375 42.7616 2.34375 42.9688V47.6562C2.34375 47.8634 2.42606 48.0622 2.57258 48.2087C2.71909 48.3552 2.9178 48.4375 3.125 48.4375H20.3125C20.5197 48.4375 20.7184 48.3552 20.8649 48.2087C21.0114 48.0622 21.0938 47.8634 21.0938 47.6562V42.9688C21.0938 42.7616 21.0114 42.5628 20.8649 42.4163C20.7184 42.2698 20.5197 42.1875 20.3125 42.1875H18.75V37.5C18.7517 37.4259 18.7411 37.352 18.7188 37.2812L17.8672 34.375H32.1328L31.2813 37.2812C31.2589 37.352 31.2483 37.4259 31.25 37.5V42.1875H29.6875C29.4803 42.1875 29.2816 42.2698 29.1351 42.4163C28.9886 42.5628 28.9063 42.7616 28.9063 42.9688V47.6562C28.9063 47.8634 28.9886 48.0622 29.1351 48.2087C29.2816 48.3552 29.4803 48.4375 29.6875 48.4375H46.875C47.0822 48.4375 47.2809 48.3552 47.4274 48.2087C47.5739 48.0622 47.6563 47.8634 47.6563 47.6562V42.9688C47.6563 42.7616 47.5739 42.5628 47.4274 42.4163C47.2809 42.2698 47.0822 42.1875 46.875 42.1875H45.6172L48.3984 33.8438C48.4228 33.7626 48.436 33.6785 48.4375 33.5938V21.875C48.4378 21.7869 48.4219 21.6995 48.3906 21.6172ZM15.625 15.625C15.625 8.73438 19.8281 3.125 25 3.125C30.1719 3.125 34.375 8.73438 34.375 15.625C34.3612 18.4388 33.5307 21.1881 31.9844 23.5391C32.016 23.2459 32.0316 22.9512 32.0313 22.6562C32.0998 20.1512 31.4926 17.6739 30.2734 15.4844C30.4022 15.0214 30.4679 14.5431 30.4688 14.0625V9.375C30.4686 9.20052 30.4101 9.03111 30.3025 8.89377C30.1949 8.75643 30.0444 8.65906 29.875 8.61719L23.625 7.05469C23.4437 7.00886 23.2519 7.03109 23.0859 7.11719L19.9609 8.67969C19.8308 8.74293 19.7213 8.84187 19.6452 8.96498C19.5691 9.08809 19.5296 9.23029 19.5313 9.375V14.0625C19.5321 14.5431 19.5978 15.0214 19.7266 15.4844C18.5074 17.6739 17.9002 20.1512 17.9688 22.6562C17.9684 22.946 17.984 23.2355 18.0156 23.5234C16.4725 21.1768 15.6422 18.4335 15.625 15.625ZM21.875 18.5469V20.7031L19.5391 22.4531C19.5289 20.666 19.8742 18.8947 20.5547 17.2422C20.9221 17.745 21.3679 18.1855 21.875 18.5469ZM21.0938 14.0625V9.85938L23.5313 8.64063L28.9063 9.98438V14.0625C28.9063 15.0985 28.4947 16.0921 27.7621 16.8246C27.0296 17.5572 26.036 17.9688 25 17.9688C23.964 17.9688 22.9704 17.5572 22.2379 16.8246C21.5053 16.0921 21.0938 15.0985 21.0938 14.0625ZM23.125 21.7188C23.2214 21.6454 23.2997 21.5509 23.3539 21.4426C23.4081 21.3342 23.4367 21.2149 23.4375 21.0938V19.3047C24.4573 19.6068 25.5427 19.6068 26.5625 19.3047V21.0938C26.5633 21.2149 26.5919 21.3342 26.6461 21.4426C26.7003 21.5509 26.7786 21.6454 26.875 21.7188L29.0469 23.3516L25 25.6641L20.9531 23.3516L23.125 21.7188ZM28.125 20.7031V18.5469C28.6322 18.1855 29.0779 17.745 29.4453 17.2422C30.1258 18.8947 30.4711 20.666 30.4609 22.4531L28.125 20.7031ZM3.125 33.4688V22.0078L7.39844 9.89844C7.45217 9.74472 7.55259 9.61164 7.68566 9.51779C7.81873 9.42394 7.9778 9.37402 8.14063 9.375H8.85157C8.97285 9.375 9.09247 9.40324 9.20095 9.45748C9.30943 9.51172 9.4038 9.59047 9.47657 9.6875C9.54934 9.78453 9.59852 9.89717 9.62022 10.0165C9.64191 10.1358 9.63553 10.2586 9.60157 10.375L6.28125 21.6562C6.25888 21.727 6.24832 21.8009 6.25 21.875V28.125C6.24844 28.2595 6.28355 28.3918 6.35157 28.5078L10.2578 35.5391C10.3428 35.689 10.4749 35.8066 10.6337 35.8736C10.7924 35.9406 10.9689 35.9533 11.1355 35.9096C11.3022 35.8659 11.4498 35.7684 11.5553 35.6321C11.6608 35.4959 11.7182 35.3286 11.7188 35.1562V25.7812C11.7188 25.574 11.8011 25.3753 11.9476 25.2288C12.0941 25.0823 12.2928 25 12.5 25H12.8906C13.0597 25 13.2241 25.0548 13.3594 25.1562C13.4946 25.2577 13.5933 25.4002 13.6406 25.5625L17.1875 37.6094V42.1875H6.03125L3.125 33.4688ZM19.5313 43.75V46.875H3.90625V43.75H19.5313ZM17.4063 32.8125L15.75 27.1797C15.9622 26.3229 16.4577 25.563 17.1563 25.0234C17.6986 25.7866 18.3163 26.4932 19 27.1328C19.1277 27.2454 19.2894 27.3119 19.4593 27.3218C19.6292 27.3317 19.7976 27.2844 19.9375 27.1875C20.0826 27.0865 20.1918 26.942 20.2493 26.7749C20.3069 26.6078 20.3099 26.4267 20.2578 26.2578C20.0781 25.6719 19.8906 25.0781 19.7578 24.4609L24.6094 27.2422C24.7288 27.3088 24.8633 27.3437 25 27.3437C25.1367 27.3437 25.2712 27.3088 25.3906 27.2422L30.25 24.4609C30.1094 25.1172 29.9219 25.7422 29.7344 26.3359C29.6844 26.5007 29.6903 26.6773 29.7511 26.8383C29.8118 26.9994 29.924 27.1359 30.0703 27.2266C30.1949 27.3031 30.3382 27.3436 30.4844 27.3438C30.6821 27.3449 30.8726 27.2693 31.0156 27.1328C31.6944 26.4986 32.3069 25.7971 32.8438 25.0391C33.5416 25.5725 34.0375 26.3274 34.25 27.1797L32.5938 32.8125H17.4063ZM46.0938 43.75V46.875H30.4688V43.75H46.0938ZM46.875 33.4688L43.9688 42.1875H32.8125V37.6094L36.3594 25.5625C36.4067 25.4002 36.5054 25.2577 36.6406 25.1562C36.7759 25.0548 36.9403 25 37.1094 25H37.5C37.7072 25 37.9059 25.0823 38.0524 25.2288C38.1989 25.3753 38.2813 25.574 38.2813 25.7812V35.1562C38.2818 35.3286 38.3393 35.4959 38.4447 35.6321C38.5502 35.7684 38.6978 35.8659 38.8645 35.9096C39.0312 35.9533 39.2076 35.9406 39.3664 35.8736C39.5251 35.8066 39.6572 35.689 39.7422 35.5391L43.6484 28.5078C43.7165 28.3918 43.7516 28.2595 43.75 28.125V21.875C43.7517 21.8009 43.7411 21.727 43.7188 21.6562L40.3984 10.375C40.3645 10.2586 40.3581 10.1358 40.3798 10.0165C40.4015 9.89717 40.4507 9.78453 40.5234 9.6875C40.5962 9.59047 40.6906 9.51172 40.7991 9.45748C40.9075 9.40324 41.0272 9.375 41.1484 9.375H41.8594C42.0222 9.37402 42.1813 9.42394 42.3143 9.51779C42.4474 9.61164 42.5478 9.74472 42.6016 9.89844L46.875 22.0078V33.4688Z" fill="#7DA837"/>
<path d="M22.6562 10.9375H24.2188V12.5H22.6562V10.9375Z" fill="#7DA837"/>
<path d="M25.7812 10.9375H27.3438V12.5H25.7812V10.9375Z" fill="#7DA837"/>
</svg>
