<svg width="50" height="50" viewBox="0 0 50 50" fill="none" xmlns="http://www.w3.org/2000/svg">
<path d="M25.0114 0C11.6284 0 3.34473 9.94875 3.34473 19.1667C3.34473 25.2889 6.14337 31.9295 10.8447 36.9963V45.8333C10.8444 46.2933 11.2171 46.6664 11.6771 46.6667C11.6774 46.6667 11.6777 46.6667 11.6781 46.6667H15.0114V49.1667C15.0111 49.6267 15.3838 49.9997 15.8438 50C15.8441 50 15.8444 50 15.8447 50H34.1781C34.6381 50.0003 35.0111 49.6276 35.0114 49.1676C35.0114 49.1673 35.0114 49.167 35.0114 49.1667V46.6667H38.3447C38.8047 46.667 39.1777 46.2943 39.1781 45.8343C39.1781 45.834 39.1781 45.8336 39.1781 45.8333V36.9963C43.8794 31.9295 46.6781 25.2889 46.6781 19.1667C46.6781 9.94875 38.3944 0 25.0114 0ZM33.3447 48.3333H16.6781V46.6667H33.3447V48.3333ZM37.5114 45H12.5114V43.3333H37.5114V45ZM37.5114 41.6667H12.5114V40H37.5114V41.6667ZM37.74 36.0929C37.5934 36.2479 37.5115 36.4532 37.5114 36.6667V38.3333H12.5114V36.6667C12.5113 36.4532 12.4294 36.2479 12.2827 36.0929C7.72952 31.2989 5.01139 24.9716 5.01139 19.1667C5.01139 10.7503 12.6579 1.66667 25.0114 1.66667C37.3649 1.66667 45.0114 10.7503 45.0114 19.1667C45.0114 24.9716 42.2933 31.2989 37.74 36.0929Z" fill="#7DA837"/>
<path d="M40.996 17.312L39.152 16.9263C39.0617 16.5243 38.9526 16.1214 38.8256 15.7226L40.2384 14.462C40.5052 14.2235 40.5903 13.8415 40.45 13.5123C39.909 12.2633 39.2176 11.0848 38.391 10.0031C38.1776 9.71835 37.8059 9.602 37.4682 9.71429L35.686 10.297C35.4028 9.9894 35.1058 9.69315 34.7974 9.41158L35.3801 7.64242C35.4923 7.30283 35.3753 6.9296 35.0896 6.71471C34.0027 5.89106 32.8197 5.20262 31.5667 4.66471C31.2392 4.52627 30.8599 4.61064 30.6219 4.87471L29.3531 6.28419C28.9519 6.15804 28.5491 6.04981 28.1446 5.9595L27.7531 4.00231C27.6753 3.61283 27.3332 3.33252 26.936 3.33252H23.0477C22.6505 3.33242 22.3085 3.61283 22.2306 4.00231L21.8392 5.9595C21.4355 6.04898 21.0327 6.15721 20.6306 6.28419L19.3619 4.87471C19.1232 4.61169 18.7447 4.52752 18.4171 4.66471C17.1642 5.20294 15.9811 5.89127 14.8942 6.71471C14.6084 6.9296 14.4914 7.30294 14.6036 7.64242L15.1872 9.41158C14.8779 9.69398 14.5809 9.99023 14.2985 10.297L12.5171 9.71346C12.1793 9.60325 11.8087 9.71888 11.5934 10.0016C10.7663 11.0838 10.0746 12.263 9.53374 13.5131C9.39353 13.8421 9.47863 14.2238 9.7453 14.462L11.158 15.7226C11.031 16.1214 10.922 16.5235 10.8317 16.9254L8.98759 17.312C8.60155 17.3927 8.32509 17.733 8.3252 18.1274V22.0003C8.32509 22.3947 8.60165 22.735 8.98759 22.8158L10.8317 23.2015C10.922 23.6035 11.031 24.0064 11.158 24.4051L9.7453 25.6658C9.47853 25.9043 9.39342 26.2863 9.53374 26.6154C10.0748 27.8645 10.7661 29.0429 11.5927 30.1246C11.8066 30.4088 12.1778 30.525 12.5155 30.4135L14.2977 29.8308C14.5809 30.1384 14.8779 30.4346 15.1863 30.7162L14.6036 32.4853C14.4913 32.8246 14.6083 33.1977 14.8942 33.4122C15.9808 34.2364 17.1638 34.9251 18.4171 35.4631C18.7446 35.6015 19.1238 35.5171 19.3619 35.253L20.6306 33.8436C21.0334 33.9705 21.4396 34.0796 21.8448 34.1699L22.2322 36.005C22.3137 36.3902 22.6538 36.6659 23.0476 36.6659H26.9359C27.3297 36.6659 27.6698 36.3902 27.7513 36.005L28.1387 34.1699C28.5441 34.0796 28.9501 33.9705 29.3529 33.8436L30.6217 35.253C30.8596 35.5174 31.239 35.6018 31.5665 35.4631C32.8197 34.925 34.0027 34.2364 35.0894 33.4122C35.3752 33.1977 35.4922 32.8246 35.3799 32.4853L34.7972 30.7169C35.104 30.4362 35.401 30.1399 35.685 29.8315L37.4672 30.4142C37.8048 30.5258 38.1759 30.4099 38.39 30.1261C39.2171 29.0439 39.9088 27.8646 40.4497 26.6145C40.5899 26.2855 40.5048 25.9039 40.2381 25.6656L38.8253 24.405C38.9523 24.0063 39.0613 23.6042 39.1517 23.2022L40.9957 22.8156C41.3818 22.7349 41.6583 22.3946 41.6582 22.0002V18.1273C41.6585 17.733 41.382 17.3927 40.996 17.312ZM39.9918 21.3233L38.2738 21.6838C37.942 21.7532 37.6851 22.0167 37.6245 22.3502C37.4985 23.0398 37.3151 23.7176 37.0759 24.3766C36.9601 24.6966 37.0507 25.0549 37.3046 25.2816L38.6718 26.5015C38.3104 27.2485 37.8885 27.9645 37.4104 28.6426L35.6835 28.0778C35.3627 27.9727 35.0101 28.0717 34.7908 28.3285C34.3337 28.8646 33.8337 29.3627 33.2958 29.8177C33.0357 30.0373 32.9352 30.3929 33.042 30.7162L33.6068 32.4292C32.9249 32.9065 32.205 33.327 31.4543 33.6865L30.2262 32.3217C30.0004 32.0703 29.645 31.9807 29.327 32.0946C28.6634 32.3319 27.9817 32.5148 27.2884 32.6415C26.955 32.7017 26.6911 32.9577 26.6211 33.2893L26.2605 34.9992H23.723L23.3625 33.2894C23.2924 32.9579 23.0286 32.7018 22.6952 32.6416C22.002 32.515 21.3201 32.3321 20.6567 32.0947C20.3386 31.9795 19.9826 32.0694 19.7574 32.3218L18.5294 33.6866C17.7787 33.3269 17.0588 32.9064 16.3769 32.4293L16.9417 30.7154C17.0484 30.3922 16.9479 30.0366 16.6878 29.817C16.1495 29.3626 15.6495 28.8648 15.1928 28.3286C14.9734 28.0715 14.6205 27.9721 14.2993 28.0771L12.5732 28.6419C12.0949 27.9643 11.6733 27.2485 11.3127 26.5016L12.6791 25.2817C12.933 25.0551 13.0235 24.6968 12.9077 24.3767C12.6687 23.7174 12.4853 23.0393 12.3592 22.3495C12.2984 22.0159 12.0417 21.7523 11.7098 21.683L9.99176 21.3233V18.8045L11.7097 18.444C12.0416 18.3746 12.2984 18.1111 12.3591 17.7775C12.485 17.0879 12.6685 16.4101 12.9076 15.7512C13.0234 15.4312 12.9328 15.0728 12.6789 14.8463L11.3118 13.6264C11.6729 12.8796 12.0948 12.1638 12.5731 11.4861L14.2992 12.0509C14.6207 12.1559 14.9738 12.0566 15.1935 11.7994C15.6509 11.2629 16.1511 10.7646 16.6893 10.3093C16.9483 10.0894 17.0481 9.73429 16.9416 9.41169L16.3768 7.69867C17.0588 7.22127 17.7791 6.80075 18.5301 6.44137L19.7573 7.80617C19.9821 8.05908 20.3385 8.14908 20.6566 8.03325C21.3197 7.79554 22.0012 7.61283 22.6944 7.48721C23.0312 7.42648 23.2968 7.16606 23.3642 6.83044L23.7304 4.99919H26.2532L26.6195 6.83023C26.6866 7.16596 26.9522 7.42648 27.2893 7.487C27.9824 7.61283 28.6639 7.79544 29.3271 8.03304C29.6451 8.14752 30.0008 8.05773 30.2263 7.80596L31.4544 6.44117C32.205 6.80085 32.9249 7.22137 33.6069 7.69846L33.0421 9.41231C32.9353 9.73554 33.0358 10.0912 33.2959 10.3108C33.8342 10.7651 34.3343 11.2629 34.7909 11.7992C35.0107 12.0556 35.3632 12.1548 35.6845 12.0506L37.4105 11.4859C37.8888 12.1635 38.3105 12.8793 38.6711 13.6262L37.3048 14.8461C37.0508 15.0726 36.9603 15.431 37.0761 15.751C37.3151 16.4102 37.4985 17.0884 37.6247 17.7781C37.6854 18.1118 37.9422 18.3753 38.2741 18.4446L39.9918 18.8045V21.3233Z" fill="#7DA837"/>
<path d="M32.2613 19.9971C32.6655 19.2845 33.0026 18.5358 33.268 17.7607C34.0411 15.4422 33.8172 13.5159 32.6381 12.3368C31.4605 11.1576 29.535 10.9346 27.2141 11.7069C26.439 11.9723 25.6903 12.3094 24.9777 12.7135C24.2651 12.3094 23.5165 11.9723 22.7414 11.7069C20.422 10.9346 18.4957 11.1568 17.3174 12.3368C16.1382 13.5159 15.9144 15.4423 16.6875 17.7607C16.9529 18.5358 17.29 19.2845 17.6942 19.9971C17.2899 20.7097 16.9529 21.4583 16.6875 22.2334C15.9144 24.552 16.1381 26.4782 17.3174 27.6574C18.0993 28.3974 19.1481 28.788 20.2234 28.7398C21.0815 28.7243 21.9316 28.5714 22.7414 28.2873C23.5165 28.0219 24.2651 27.6849 24.9777 27.2806C25.6903 27.6849 26.439 28.0219 27.2141 28.2873C28.0239 28.5714 28.8739 28.7243 29.732 28.7398C30.8074 28.7879 31.8562 28.3973 32.6381 27.6574C33.8172 26.4782 34.0411 24.5519 33.268 22.2334C33.0026 21.4583 32.6655 20.7097 32.2613 19.9971ZM18.4957 13.5151C18.9733 13.0946 19.5991 12.8819 20.2341 12.9243C20.9092 12.9397 21.5775 13.0625 22.2141 13.288C22.6012 13.4205 22.9802 13.575 23.3497 13.7506C21.5708 15.0304 20.0112 16.5901 18.7314 18.3689C18.5556 17.9996 18.4011 17.6204 18.2686 17.2333C17.7137 15.5692 17.7968 14.2143 18.4957 13.5151ZM22.2141 26.706C20.5498 27.2619 19.1949 27.1788 18.4958 26.4789C17.7968 25.7799 17.7137 24.4249 18.2687 22.7607C18.4012 22.3736 18.5557 21.9946 18.7314 21.6251C19.3698 22.5133 20.0795 23.3482 20.8533 24.1213C21.6266 24.8952 22.4614 25.6049 23.3496 26.2433C22.9802 26.4192 22.6011 26.5736 22.2141 26.706ZM19.6347 19.9971C21.0311 17.8689 22.8496 16.0503 24.9777 14.654C27.1059 16.0504 28.9245 17.8689 30.3208 19.9971C28.9244 22.1252 27.1059 23.9438 24.9777 25.3401C22.8496 23.9438 21.0309 22.1252 19.6347 19.9971ZM31.4597 26.4789C30.7598 27.1788 29.4057 27.2619 27.7415 26.706C27.3544 26.5735 26.9753 26.419 26.6059 26.2434C28.3847 24.9636 29.9444 23.4039 31.2242 21.6251C31.3999 21.9946 31.5544 22.3736 31.6868 22.7607C32.2417 24.425 32.1588 25.7799 31.4597 26.4789ZM31.6867 17.2334C31.5542 17.6205 31.3997 17.9996 31.2241 18.369C29.9443 16.5902 28.3846 15.0305 26.6058 13.7507C26.9751 13.575 27.3543 13.4205 27.7414 13.288C28.378 13.0625 29.0463 12.9397 29.7214 12.9243C30.3564 12.8819 30.982 13.0946 31.4597 13.5151C32.1588 14.2143 32.2418 15.5692 31.6867 17.2334Z" fill="#515151"/>
<path d="M25.0049 18.75C24.3146 18.75 23.7549 19.3097 23.7549 20C23.7549 20.6903 24.3146 21.25 25.0049 21.25C25.6952 21.25 26.2549 20.6903 26.2549 20C26.2542 19.31 25.6949 18.7507 25.0049 18.75ZM25.0049 20.4167C24.7748 20.4167 24.5882 20.2301 24.5882 20C24.5882 19.7699 24.7748 19.5833 25.0049 19.5833C25.235 19.5833 25.4216 19.7699 25.4216 20C25.4211 20.2299 25.2348 20.4163 25.0049 20.4167Z" fill="#7DA837"/>
<path d="M3.33333 1.66667V1.07167V0H1.66667V1.07167V1.66667H0V3.33333H1.66667V5H3.33333V3.33333H5V1.66667H3.33333Z" fill="#7DA837"/>
<path d="M48.3285 1.66667V1.07167V0H46.6618V1.07167V1.66667H44.9951V3.33333H46.6618V5H48.3285V3.33333H49.9951V1.66667H48.3285Z" fill="#7DA837"/>
<path d="M5.82357 46.6618V44.9951H4.1569V46.6618H2.49023V48.3285H4.1569V48.7451V49.9951H5.82357V48.7451V48.3285H7.49024V46.6618H5.82357Z" fill="#7DA837"/>
<path d="M48.3285 45.0016V44.4066V43.335H46.6618V44.4066V45.0016H44.9951V46.6683H46.6618V48.3349H48.3285V46.6683H49.9951V45.0016H48.3285Z" fill="#7DA837"/>
</svg>
