<svg width="12" height="12" viewBox="0 0 12 12" fill="none" xmlns="http://www.w3.org/2000/svg">
<path d="M2.0625 1.875H9.9375C10.2855 1.87537 10.6191 2.01377 10.8652 2.25983C11.1112 2.50589 11.2496 2.83952 11.25 3.1875V8.8125C11.2496 9.16048 11.1112 9.49411 10.8652 9.74017C10.6191 9.98623 10.2855 10.1246 9.9375 10.125H2.0625C1.71452 10.1246 1.38089 9.98623 1.13483 9.74017C0.888773 9.49411 0.750372 9.16048 0.75 8.8125V3.1875C0.750372 2.83952 0.888773 2.50589 1.13483 2.25983C1.38089 2.01377 1.71452 1.87537 2.0625 1.875ZM2.39484 4.04602L5.76984 6.67102C5.83566 6.72218 5.91664 6.74995 6 6.74995C6.08336 6.74995 6.16434 6.72218 6.23016 6.67102L9.60516 4.04602C9.64481 4.01607 9.67812 3.97854 9.70314 3.93562C9.72816 3.89269 9.74441 3.84521 9.75093 3.79595C9.75744 3.74669 9.75411 3.69663 9.74111 3.64867C9.72811 3.60071 9.70571 3.55581 9.67521 3.51658C9.64471 3.47735 9.60672 3.44458 9.56344 3.42016C9.52017 3.39574 9.47247 3.38017 9.42312 3.37435C9.37377 3.36852 9.32376 3.37256 9.27599 3.38623C9.22822 3.39991 9.18364 3.42294 9.14484 3.45398L6 5.89992L2.85516 3.45398C2.77652 3.3946 2.67767 3.36855 2.57998 3.38148C2.48228 3.39441 2.39361 3.44527 2.33312 3.52306C2.27264 3.60085 2.2452 3.69933 2.25675 3.79719C2.2683 3.89506 2.31791 3.98444 2.39484 4.04602Z" fill="#E5E5E5"/>
</svg>
